<svg width="13" height="16" viewBox="0 0 13 16" fill="none" xmlns="http://www.w3.org/2000/svg">
<path d="M6.5 9.41675C6.29931 9.41675 6.13096 9.34875 5.99496 9.21275C5.85896 9.07675 5.7912 8.90864 5.79167 8.70842C5.79167 8.50772 5.85967 8.33938 5.99567 8.20338C6.13167 8.06738 6.29978 7.99961 6.5 8.00008C6.7007 8.00008 6.86904 8.06808 7.00504 8.20408C7.14104 8.34008 7.20881 8.50819 7.20833 8.70842C7.20833 8.90911 7.14033 9.07746 7.00433 9.21346C6.86833 9.34946 6.70022 9.41722 6.5 9.41675ZM3.66667 9.41675C3.46597 9.41675 3.29763 9.34875 3.16163 9.21275C3.02563 9.07675 2.95786 8.90864 2.95833 8.70842C2.95833 8.50772 3.02633 8.33938 3.16233 8.20338C3.29833 8.06738 3.46645 7.99961 3.66667 8.00008C3.86736 8.00008 4.03571 8.06808 4.17171 8.20408C4.30771 8.34008 4.37547 8.50819 4.375 8.70842C4.375 8.90911 4.307 9.07746 4.171 9.21346C4.035 9.34946 3.86689 9.41722 3.66667 9.41675ZM9.33333 9.41675C9.13264 9.41675 8.96429 9.34875 8.82829 9.21275C8.69229 9.07675 8.62453 8.90864 8.625 8.70842C8.625 8.50772 8.693 8.33938 8.829 8.20338C8.965 8.06738 9.13311 7.99961 9.33333 8.00008C9.53403 8.00008 9.70238 8.06808 9.83838 8.20408C9.97438 8.34008 10.0421 8.50819 10.0417 8.70842C10.0417 8.90911 9.97367 9.07746 9.83767 9.21346C9.70167 9.34946 9.53356 9.41722 9.33333 9.41675ZM6.5 12.2501C6.29931 12.2501 6.13096 12.1821 5.99496 12.0461C5.85896 11.9101 5.7912 11.742 5.79167 11.5418C5.79167 11.3411 5.85967 11.1727 5.99567 11.0367C6.13167 10.9007 6.29978 10.8329 6.5 10.8334C6.7007 10.8334 6.86904 10.9014 7.00504 11.0374C7.14104 11.1734 7.20881 11.3415 7.20833 11.5418C7.20833 11.7424 7.14033 11.9108 7.00433 12.0468C6.86833 12.1828 6.70022 12.2506 6.5 12.2501ZM3.66667 12.2501C3.46597 12.2501 3.29763 12.1821 3.16163 12.0461C3.02563 11.9101 2.95786 11.742 2.95833 11.5418C2.95833 11.3411 3.02633 11.1727 3.16233 11.0367C3.29833 10.9007 3.46645 10.8329 3.66667 10.8334C3.86736 10.8334 4.03571 10.9014 4.17171 11.0374C4.30771 11.1734 4.37547 11.3415 4.375 11.5418C4.375 11.7424 4.307 11.9108 4.171 12.0468C4.035 12.1828 3.86689 12.2506 3.66667 12.2501ZM9.33333 12.2501C9.13264 12.2501 8.96429 12.1821 8.82829 12.0461C8.69229 11.9101 8.62453 11.742 8.625 11.5418C8.625 11.3411 8.693 11.1727 8.829 11.0367C8.965 10.9007 9.13311 10.8329 9.33333 10.8334C9.53403 10.8334 9.70238 10.9014 9.83838 11.0374C9.97438 11.1734 10.0421 11.3415 10.0417 11.5418C10.0417 11.7424 9.97367 11.9108 9.83767 12.0468C9.70167 12.1828 9.53356 12.2506 9.33333 12.2501ZM1.54167 15.0834C1.15208 15.0834 0.818459 14.9446 0.540793 14.6669C0.263126 14.3893 0.124529 14.0559 0.125001 13.6667V3.75008C0.125001 3.3605 0.263835 3.02688 0.541501 2.74921C0.819168 2.47154 1.15256 2.33294 1.54167 2.33342H2.25V1.62508C2.25 1.42439 2.318 1.25604 2.454 1.12004C2.59 0.984042 2.75811 0.916278 2.95833 0.91675C3.15903 0.91675 3.32738 0.984751 3.46338 1.12075C3.59938 1.25675 3.66714 1.42486 3.66667 1.62508V2.33342H9.33333V1.62508C9.33333 1.42439 9.40133 1.25604 9.53733 1.12004C9.67333 0.984042 9.84145 0.916278 10.0417 0.91675C10.2424 0.91675 10.4107 0.984751 10.5467 1.12075C10.6827 1.25675 10.7505 1.42486 10.75 1.62508V2.33342H11.4583C11.8479 2.33342 12.1815 2.47225 12.4592 2.74992C12.7369 3.02758 12.8755 3.36097 12.875 3.75008V13.6667C12.875 14.0563 12.7362 14.39 12.4585 14.6676C12.1808 14.9453 11.8474 15.0839 11.4583 15.0834H1.54167ZM1.54167 13.6667H11.4583V6.58342H1.54167V13.6667Z" fill="#0D0521"/>
</svg>
