<svg width="10" height="9" viewBox="0 0 10 9" fill="none" xmlns="http://www.w3.org/2000/svg">
<path d="M8.52795 6.23169C8.2209 6.93666 7.71522 7.53698 7.07267 7.95935C6.43011 8.38172 5.67848 8.60786 4.90954 8.61017C4.14061 8.61248 3.38763 8.39086 2.74255 7.97236C2.09747 7.55386 1.5882 6.95659 1.27691 6.25347L1.88031 5.98617C2.14946 6.59387 2.59586 7.10613 3.16104 7.45586C3.72622 7.80559 4.38384 7.9765 5.04779 7.94621C5.71173 7.91592 6.35106 7.68583 6.88204 7.28608C7.41303 6.88633 7.81092 6.33556 8.02362 5.70587L7.14688 6.09426C7.06687 6.12971 6.97605 6.13192 6.8944 6.1004C6.81276 6.06889 6.74698 6.00623 6.71153 5.92622C6.67608 5.8462 6.67388 5.75538 6.70539 5.67374C6.73691 5.59209 6.79956 5.52631 6.87958 5.49087L8.28489 4.86832C8.36491 4.83287 8.45573 4.83066 8.53737 4.86218C8.61901 4.89369 8.68479 4.95635 8.72024 5.03637L9.34225 6.44047C9.3777 6.52048 9.37991 6.6113 9.34839 6.69295C9.31688 6.77459 9.25422 6.84037 9.17421 6.87582C9.09419 6.91127 9.00337 6.91347 8.92173 6.88196C8.84008 6.85044 8.7743 6.78779 8.73886 6.70777L8.52795 6.23169ZM1.77123 3.59405L2.64797 3.20566C2.72798 3.17021 2.8188 3.168 2.90044 3.19952C2.98209 3.23103 3.04787 3.29369 3.08332 3.37371C3.11876 3.45372 3.12097 3.54454 3.08946 3.62618C3.05794 3.70783 2.99528 3.77361 2.91527 3.80906L1.50935 4.43187C1.42934 4.46732 1.33852 4.46953 1.25687 4.43801C1.17523 4.4065 1.10945 4.34384 1.074 4.26382L0.451457 2.85851C0.41601 2.7785 0.413802 2.68768 0.445316 2.60603C0.476831 2.52439 0.539489 2.45861 0.619504 2.42316C0.699519 2.38772 0.790339 2.38551 0.871983 2.41702C0.953626 2.44854 1.01941 2.51119 1.05485 2.59121L1.26602 3.06789C1.57276 2.36236 2.07837 1.76146 2.72108 1.33863C3.36379 0.915795 4.11575 0.689344 4.88507 0.686948C5.65439 0.684553 6.40775 0.906317 7.05308 1.32514C7.69841 1.74396 8.20776 2.3417 8.51888 3.04531L7.91548 3.31261C7.6463 2.70483 7.19983 2.19251 6.63455 1.84276C6.06928 1.49302 5.41155 1.32215 4.74752 1.35254C4.08349 1.38293 3.44412 1.61316 2.91315 2.01308C2.38218 2.413 1.98377 2.96422 1.77123 3.59405Z" fill="black" stroke="black" stroke-width="0.3"/>
</svg>
