<svg width="11" height="15" viewBox="0 0 11 15" fill="none" xmlns="http://www.w3.org/2000/svg">
<path d="M2.71501 0.730311L10.4153 7.13313C10.5067 7.20935 10.5713 7.29193 10.609 7.38085C10.6474 7.46978 10.6666 7.56506 10.6666 7.66669C10.6666 7.76833 10.6474 7.86361 10.609 7.95253C10.5713 8.04146 10.5067 8.12404 10.4153 8.20026L2.71501 14.6221C2.50175 14.8 2.23517 14.8889 1.91528 14.8889C1.59539 14.8889 1.3212 14.7936 1.0927 14.6031C0.864206 14.4125 0.749959 14.1902 0.749959 13.9361C0.749959 13.682 0.864206 13.4597 1.0927 13.2692L7.81044 7.66669L1.0927 2.06423C0.879439 1.88637 0.772807 1.66736 0.772807 1.40718C0.772807 1.14649 0.887055 0.920871 1.11555 0.730311C1.34404 0.539751 1.61062 0.444472 1.91528 0.444472C2.21994 0.444472 2.48652 0.539751 2.71501 0.730311Z" fill="#2B4B88"/>
</svg>
