<svg width="10" height="15" viewBox="0 0 10 15" fill="none" xmlns="http://www.w3.org/2000/svg">
<path d="M7.95161 14.1586L0.251344 7.75579C0.159946 7.67957 0.0953584 7.59699 0.0575806 7.50806C0.0191935 7.41913 0 7.32385 0 7.22222C0 7.12059 0.0191935 7.02531 0.0575806 6.93638C0.0953584 6.84746 0.159946 6.76488 0.251344 6.68865L7.95161 0.266784C8.16488 0.0889279 8.43145 0 8.75134 0C9.07124 0 9.34543 0.09528 9.57393 0.28584C9.80242 0.4764 9.91667 0.69872 9.91667 0.9528C9.91667 1.20688 9.80242 1.4292 9.57393 1.61976L2.85618 7.22222L9.57393 12.8247C9.78719 13.0025 9.89382 13.2216 9.89382 13.4817C9.89382 13.7424 9.77957 13.968 9.55108 14.1586C9.32258 14.3492 9.056 14.4444 8.75134 14.4444C8.44668 14.4444 8.18011 14.3492 7.95161 14.1586Z" fill="#2B4B88"/>
</svg>
