<svg width="18" height="16" viewBox="0 0 18 16" fill="none" xmlns="http://www.w3.org/2000/svg">
<path d="M15.6327 10.837C15.0638 12.1431 14.1269 13.2554 12.9364 14.038C11.7458 14.8205 10.3532 15.2395 8.92853 15.2438C7.50385 15.2481 6.10874 14.8375 4.91354 14.0621C3.71834 13.2867 2.77476 12.1801 2.198 10.8773L3.31597 10.3821C3.81467 11.508 4.64175 12.4571 5.68891 13.1051C6.73607 13.7531 7.95451 14.0698 9.18467 14.0136C10.4148 13.9575 11.5994 13.5312 12.5832 12.7905C13.567 12.0499 14.3042 11.0294 14.6983 9.86274L13.0739 10.5823C12.9256 10.648 12.7573 10.6521 12.6061 10.5937C12.4548 10.5353 12.3329 10.4192 12.2673 10.271C12.2016 10.1227 12.1975 9.95447 12.2559 9.8032C12.3143 9.65193 12.4304 9.53005 12.5786 9.46437L15.1824 8.31092C15.3306 8.24525 15.4989 8.24115 15.6502 8.29954C15.8014 8.35793 15.9233 8.47403 15.989 8.62228L17.1414 11.2238C17.2071 11.372 17.2112 11.5403 17.1528 11.6916C17.0944 11.8429 16.9783 11.9647 16.8301 12.0304C16.6818 12.0961 16.5136 12.1002 16.3623 12.0418C16.211 11.9834 16.0891 11.8673 16.0235 11.7191L15.6322 10.8359L15.6327 10.837ZM3.11388 5.94996L4.73829 5.23035C4.88654 5.16467 5.05481 5.16058 5.20608 5.21897C5.35735 5.27736 5.47923 5.39345 5.5449 5.54171C5.61058 5.68996 5.61467 5.85823 5.55628 6.0095C5.49789 6.16077 5.3818 6.28265 5.23355 6.34832L2.62867 7.50227C2.48042 7.56794 2.31215 7.57204 2.16088 7.51365C2.00961 7.45526 1.88774 7.33916 1.82206 7.19091L0.668606 4.58716C0.602931 4.4389 0.598839 4.27063 0.65723 4.11937C0.71562 3.9681 0.831711 3.84622 0.979964 3.78054C1.12822 3.71487 1.29649 3.71077 1.44775 3.76917C1.59902 3.82756 1.7209 3.94365 1.78658 4.0919L2.17783 4.9751C2.74614 3.66789 3.68295 2.55454 4.87375 1.77112C6.06456 0.987697 7.4578 0.568129 8.88319 0.563691C10.3086 0.559253 11.7044 0.970136 12.9001 1.74613C14.0957 2.52212 15.0395 3.62961 15.6159 4.93326L14.4979 5.42851C13.9992 4.30241 13.172 3.35319 12.1246 2.70518C11.0773 2.05717 9.85865 1.74059 8.62834 1.7969C7.39802 1.8532 6.2134 2.27977 5.22962 3.02074C4.24585 3.7617 3.50879 4.78251 3.115 5.94946L3.11388 5.94996Z" fill="white"/>
</svg>
