<svg width="24" height="24" viewBox="0 0 24 24" fill="none" xmlns="http://www.w3.org/2000/svg">
<path d="M6.03571 7.19286C5.39929 7.19286 4.85466 6.96606 4.40183 6.51246C3.94823 6.05963 3.72143 5.515 3.72143 4.87857V2.56429C3.72143 1.92786 3.94823 1.38284 4.40183 0.929243C4.85466 0.476414 5.39929 0.25 6.03571 0.25H17.6071C18.2436 0.25 18.7886 0.476414 19.2422 0.929243C19.695 1.38284 19.9214 1.92786 19.9214 2.56429V4.87857C19.9214 5.515 19.695 6.05963 19.2422 6.51246C18.7886 6.96606 18.2436 7.19286 17.6071 7.19286H6.03571ZM6.03571 4.87857H17.6071V2.56429H6.03571V4.87857ZM2.56429 23.3929C1.92786 23.3929 1.38323 23.1664 0.9304 22.7136C0.4768 22.26 0.25 21.715 0.25 21.0786V19.9214H23.3929V21.0786C23.3929 21.715 23.1664 22.26 22.7136 22.7136C22.26 23.1664 21.715 23.3929 21.0786 23.3929H2.56429ZM0.25 18.7643L4.27107 9.70964C4.46393 9.28536 4.75321 8.95249 5.13893 8.71103C5.52464 8.47034 5.93929 8.35 6.38286 8.35H17.26C17.7036 8.35 18.1182 8.47034 18.5039 8.71103C18.8896 8.95249 19.1789 9.28536 19.3718 9.70964L23.3929 18.7643H0.25ZM7.77143 16.45H8.92857C9.08286 16.45 9.21786 16.3921 9.33357 16.2764C9.44929 16.1607 9.50714 16.0257 9.50714 15.8714C9.50714 15.7171 9.44929 15.5821 9.33357 15.4664C9.21786 15.3507 9.08286 15.2929 8.92857 15.2929H7.77143C7.61714 15.2929 7.48214 15.3507 7.36643 15.4664C7.25071 15.5821 7.19286 15.7171 7.19286 15.8714C7.19286 16.0257 7.25071 16.1607 7.36643 16.2764C7.48214 16.3921 7.61714 16.45 7.77143 16.45ZM7.77143 14.1357H8.92857C9.08286 14.1357 9.21786 14.0779 9.33357 13.9621C9.44929 13.8464 9.50714 13.7114 9.50714 13.5571C9.50714 13.4029 9.44929 13.2679 9.33357 13.1521C9.21786 13.0364 9.08286 12.9786 8.92857 12.9786H7.77143C7.61714 12.9786 7.48214 13.0364 7.36643 13.1521C7.25071 13.2679 7.19286 13.4029 7.19286 13.5571C7.19286 13.7114 7.25071 13.8464 7.36643 13.9621C7.48214 14.0779 7.61714 14.1357 7.77143 14.1357ZM7.77143 11.8214H8.92857C9.08286 11.8214 9.21786 11.7636 9.33357 11.6479C9.44929 11.5321 9.50714 11.3971 9.50714 11.2429C9.50714 11.0886 9.44929 10.9536 9.33357 10.8379C9.21786 10.7221 9.08286 10.6643 8.92857 10.6643H7.77143C7.61714 10.6643 7.48214 10.7221 7.36643 10.8379C7.25071 10.9536 7.19286 11.0886 7.19286 11.2429C7.19286 11.3971 7.25071 11.5321 7.36643 11.6479C7.48214 11.7636 7.61714 11.8214 7.77143 11.8214ZM11.2429 16.45H12.4C12.5543 16.45 12.6893 16.3921 12.805 16.2764C12.9207 16.1607 12.9786 16.0257 12.9786 15.8714C12.9786 15.7171 12.9207 15.5821 12.805 15.4664C12.6893 15.3507 12.5543 15.2929 12.4 15.2929H11.2429C11.0886 15.2929 10.9536 15.3507 10.8379 15.4664C10.7221 15.5821 10.6643 15.7171 10.6643 15.8714C10.6643 16.0257 10.7221 16.1607 10.8379 16.2764C10.9536 16.3921 11.0886 16.45 11.2429 16.45ZM11.2429 14.1357H12.4C12.5543 14.1357 12.6893 14.0779 12.805 13.9621C12.9207 13.8464 12.9786 13.7114 12.9786 13.5571C12.9786 13.4029 12.9207 13.2679 12.805 13.1521C12.6893 13.0364 12.5543 12.9786 12.4 12.9786H11.2429C11.0886 12.9786 10.9536 13.0364 10.8379 13.1521C10.7221 13.2679 10.6643 13.4029 10.6643 13.5571C10.6643 13.7114 10.7221 13.8464 10.8379 13.9621C10.9536 14.0779 11.0886 14.1357 11.2429 14.1357ZM11.2429 11.8214H12.4C12.5543 11.8214 12.6893 11.7636 12.805 11.6479C12.9207 11.5321 12.9786 11.3971 12.9786 11.2429C12.9786 11.0886 12.9207 10.9536 12.805 10.8379C12.6893 10.7221 12.5543 10.6643 12.4 10.6643H11.2429C11.0886 10.6643 10.9536 10.7221 10.8379 10.8379C10.7221 10.9536 10.6643 11.0886 10.6643 11.2429C10.6643 11.3971 10.7221 11.5321 10.8379 11.6479C10.9536 11.7636 11.0886 11.8214 11.2429 11.8214ZM14.7143 16.45H15.8714C16.0257 16.45 16.1607 16.3921 16.2764 16.2764C16.3921 16.1607 16.45 16.0257 16.45 15.8714C16.45 15.7171 16.3921 15.5821 16.2764 15.4664C16.1607 15.3507 16.0257 15.2929 15.8714 15.2929H14.7143C14.56 15.2929 14.425 15.3507 14.3093 15.4664C14.1936 15.5821 14.1357 15.7171 14.1357 15.8714C14.1357 16.0257 14.1936 16.1607 14.3093 16.2764C14.425 16.3921 14.56 16.45 14.7143 16.45ZM14.7143 14.1357H15.8714C16.0257 14.1357 16.1607 14.0779 16.2764 13.9621C16.3921 13.8464 16.45 13.7114 16.45 13.5571C16.45 13.4029 16.3921 13.2679 16.2764 13.1521C16.1607 13.0364 16.0257 12.9786 15.8714 12.9786H14.7143C14.56 12.9786 14.425 13.0364 14.3093 13.1521C14.1936 13.2679 14.1357 13.4029 14.1357 13.5571C14.1357 13.7114 14.1936 13.8464 14.3093 13.9621C14.425 14.0779 14.56 14.1357 14.7143 14.1357ZM14.7143 11.8214H15.8714C16.0257 11.8214 16.1607 11.7636 16.2764 11.6479C16.3921 11.5321 16.45 11.3971 16.45 11.2429C16.45 11.0886 16.3921 10.9536 16.2764 10.8379C16.1607 10.7221 16.0257 10.6643 15.8714 10.6643H14.7143C14.56 10.6643 14.425 10.7221 14.3093 10.8379C14.1936 10.9536 14.1357 11.0886 14.1357 11.2429C14.1357 11.3971 14.1936 11.5321 14.3093 11.6479C14.425 11.7636 14.56 11.8214 14.7143 11.8214Z" fill="black"/>
</svg>
