<svg width="24" height="24" viewBox="0 0 24 24" fill="none" xmlns="http://www.w3.org/2000/svg">
<path d="M13.2 0L15.3516 2.15156L13.2 4.30313L9.6 0.703125L4.85859 5.44453L6.55547 7.14141L9.6 4.09688L13.2 7.69688L17.0484 3.84844L19.2 6V0H13.2ZM1.2 9.6C0.5376 9.6 0 10.1376 0 10.8V22.8C0 23.4624 0.5376 24 1.2 24H22.8C23.4624 24 24 23.4624 24 22.8V10.8C24 10.1376 23.4624 9.6 22.8 9.6H1.2ZM3.49453 12H20.5055C20.595 12.2524 20.7397 12.4816 20.9291 12.6709C21.1184 12.8603 21.3476 13.005 21.6 13.0945V20.5055C21.3476 20.595 21.1184 20.7397 20.9291 20.9291C20.7397 21.1184 20.595 21.3476 20.5055 21.6H3.49453C3.40499 21.3476 3.26028 21.1184 3.07093 20.9291C2.88158 20.7397 2.65237 20.595 2.4 20.5055V13.0945C2.65237 13.005 2.88158 12.8603 3.07093 12.6709C3.26028 12.4816 3.40499 12.2524 3.49453 12ZM12 13.2C11.0452 13.2 10.1295 13.5793 9.45442 14.2544C8.77928 14.9295 8.4 15.8452 8.4 16.8C8.4 17.7548 8.77928 18.6705 9.45442 19.3456C10.1295 20.0207 11.0452 20.4 12 20.4C12.9548 20.4 13.8705 20.0207 14.5456 19.3456C15.2207 18.6705 15.6 17.7548 15.6 16.8C15.6 15.8452 15.2207 14.9295 14.5456 14.2544C13.8705 13.5793 12.9548 13.2 12 13.2ZM6 15.6C5.3376 15.6 4.8 16.1364 4.8 16.8C4.8 17.4636 5.3376 18 6 18C6.6624 18 7.2 17.4636 7.2 16.8C7.2 16.1364 6.6624 15.6 6 15.6ZM18 15.6C17.3376 15.6 16.8 16.1364 16.8 16.8C16.8 17.4636 17.3376 18 18 18C18.6624 18 19.2 17.4636 19.2 16.8C19.2 16.1364 18.6624 15.6 18 15.6Z" fill="#545454"/>
</svg>
