<svg width="20" height="20" viewBox="0 0 20 20" fill="none" xmlns="http://www.w3.org/2000/svg">
<path d="M3.7143 7.71429V5.14286M3.7143 7.71429C2.29144 7.71429 1.14287 7.71429 1.14287 9.42858C1.14287 12 6.28573 12 6.28573 14.5714C6.28573 16.2857 5.13715 16.2857 3.7143 16.2857M3.7143 7.71429C5.13715 7.71429 6.28573 8.36572 6.28573 9.42858M1.14287 14.5714C1.14287 15.8571 2.29144 16.2857 3.7143 16.2857M3.7143 16.2857V18.8571M10.5714 16.2857H15.7143M10.5714 8.57143V0.857147L19.1429 9.42858H11.4286C11.2013 9.42858 10.9832 9.33827 10.8225 9.17752C10.6617 9.01678 10.5714 8.79876 10.5714 8.57143Z" stroke="#545454" stroke-width="1.6" stroke-linecap="round" stroke-linejoin="round"/>
</svg>
